<?xml version="1.0" encoding="UTF-8" standalone="no"?>
<svg
   width="1920"
   height="1080"
   viewBox="0 0 1920 1080"
   version="1.1"
   id="svg87"
   sodipodi:docname="arts-creativite-03.svg"
   inkscape:version="1.4.4 (dcaf3e7d9e, 2026-05-05)"
   xmlns:inkscape="http://www.inkscape.org/namespaces/inkscape"
   xmlns:sodipodi="http://sodipodi.sourceforge.net/DTD/sodipodi-0.dtd"
   xmlns="http://www.w3.org/2000/svg"
   xmlns:svg="http://www.w3.org/2000/svg">
  <defs
     id="defs87" />
  <sodipodi:namedview
     id="namedview87"
     pagecolor="#ffffff"
     bordercolor="#000000"
     borderopacity="0.25"
     inkscape:showpageshadow="2"
     inkscape:pageopacity="0.0"
     inkscape:pagecheckerboard="0"
     inkscape:deskcolor="#d1d1d1"
     inkscape:zoom="0.69444444"
     inkscape:cx="960.48"
     inkscape:cy="540"
     inkscape:window-width="1920"
     inkscape:window-height="958"
     inkscape:window-x="0"
     inkscape:window-y="0"
     inkscape:window-maximized="1"
     inkscape:current-layer="svg87" />
  <g
     stroke="currentColor"
     fill="none"
     id="g87">
    <!-- PALETTES (5) -->
    <g
       transform="translate(200, 180) rotate(25)"
       opacity="0.34"
       id="g5">
      <ellipse
         cx="0"
         cy="0"
         rx="58"
         ry="44"
         fill="currentColor"
         opacity="0.08"
         id="ellipse1" />
      <circle
         cx="-19"
         cy="-9"
         r="8"
         fill="currentColor"
         opacity="0.34"
         id="circle1" />
      <circle
         cx="9"
         cy="-14"
         r="8"
         fill="currentColor"
         opacity="0.34"
         id="circle2" />
      <circle
         cx="24"
         cy="6"
         r="8"
         fill="currentColor"
         opacity="0.34"
         id="circle3" />
      <circle
         cx="5"
         cy="16"
         r="8"
         fill="currentColor"
         opacity="0.34"
         id="circle4" />
      <circle
         cx="-14"
         cy="19"
         r="8"
         fill="currentColor"
         opacity="0.34"
         id="circle5" />
      <path
         d="M-44,0 Q-58,-10 -54,-26"
         stroke-width="3"
         id="path5" />
    </g>
    <g
       transform="translate(950, 150) rotate(-30)"
       opacity="0.37"
       id="g9">
      <ellipse
         cx="0"
         cy="0"
         rx="46"
         ry="35"
         fill="currentColor"
         opacity="0.08"
         id="ellipse5" />
      <circle
         cx="-13"
         cy="-7"
         r="6"
         fill="currentColor"
         opacity="0.37"
         id="circle6" />
      <circle
         cx="7"
         cy="-10"
         r="6"
         fill="currentColor"
         opacity="0.37"
         id="circle7" />
      <circle
         cx="18"
         cy="4"
         r="6"
         fill="currentColor"
         opacity="0.37"
         id="circle8" />
      <circle
         cx="3"
         cy="11"
         r="6"
         fill="currentColor"
         opacity="0.37"
         id="circle9" />
      <path
         d="M-35,0 Q-46,-7 -43,-18"
         stroke-width="2.5"
         id="path9" />
    </g>
    <g
       transform="translate(1600, 280) rotate(35)"
       opacity="0.31"
       id="g14">
      <ellipse
         cx="0"
         cy="0"
         rx="65"
         ry="50"
         fill="currentColor"
         opacity="0.08"
         id="ellipse9" />
      <circle
         cx="-23"
         cy="-12"
         r="10"
         fill="currentColor"
         opacity="0.31"
         id="circle10" />
      <circle
         cx="12"
         cy="-17"
         r="10"
         fill="currentColor"
         opacity="0.31"
         id="circle11" />
      <circle
         cx="28"
         cy="7"
         r="10"
         fill="currentColor"
         opacity="0.31"
         id="circle12" />
      <circle
         cx="6"
         cy="19"
         r="10"
         fill="currentColor"
         opacity="0.31"
         id="circle13" />
      <circle
         cx="-17"
         cy="23"
         r="10"
         fill="currentColor"
         opacity="0.31"
         id="circle14" />
      <path
         d="M-49,0 Q-65,-12 -61,-28"
         stroke-width="3.5"
         id="path14" />
    </g>
    <g
       transform="translate(450, 850) rotate(-15)"
       opacity="0.38"
       id="g18">
      <ellipse
         cx="0"
         cy="0"
         rx="40"
         ry="30"
         fill="currentColor"
         opacity="0.08"
         id="ellipse14" />
      <circle
         cx="-11"
         cy="-6"
         r="5"
         fill="currentColor"
         opacity="0.38"
         id="circle15" />
      <circle
         cx="6"
         cy="-9"
         r="5"
         fill="currentColor"
         opacity="0.38"
         id="circle16" />
      <circle
         cx="16"
         cy="3"
         r="5"
         fill="currentColor"
         opacity="0.38"
         id="circle17" />
      <circle
         cx="3"
         cy="9"
         r="5"
         fill="currentColor"
         opacity="0.38"
         id="circle18" />
      <path
         d="M-30,0 Q-40,-6 -37,-16"
         stroke-width="2"
         id="path18" />
    </g>
    <g
       transform="translate(1300, 950) rotate(20)"
       opacity="0.33"
       id="g23">
      <ellipse
         cx="0"
         cy="0"
         rx="52"
         ry="40"
         fill="currentColor"
         opacity="0.08"
         id="ellipse18" />
      <circle
         cx="-17"
         cy="-9"
         r="7"
         fill="currentColor"
         opacity="0.33"
         id="circle19" />
      <circle
         cx="8"
         cy="-12"
         r="7"
         fill="currentColor"
         opacity="0.33"
         id="circle20" />
      <circle
         cx="21"
         cy="5"
         r="7"
         fill="currentColor"
         opacity="0.33"
         id="circle21" />
      <circle
         cx="4"
         cy="13"
         r="7"
         fill="currentColor"
         opacity="0.33"
         id="circle22" />
      <circle
         cx="-12"
         cy="16"
         r="7"
         fill="currentColor"
         opacity="0.33"
         id="circle23" />
      <path
         d="M-40,0 Q-52,-8 -49,-20"
         stroke-width="3"
         id="path23" />
    </g>
    <!-- PINCEAUX (7) -->
    <g
       transform="translate(350, 500) rotate(55)"
       opacity="0.36"
       id="g24">
      <rect
         x="-4"
         y="-39"
         width="8"
         height="59"
         rx="2"
         fill="currentColor"
         opacity="0.25"
         id="rect23" />
      <path
         d="M-4,20 L-6,35 Q0,40 6,35 L4,20 Z"
         fill="currentColor"
         opacity="0.36"
         id="path24" />
      <line
         x1="0"
         y1="-39"
         x2="0"
         y2="-25"
         stroke-width="3"
         id="line24" />
    </g>
    <g
       transform="translate(800, 350) rotate(-40)"
       opacity="0.32"
       id="g25">
      <rect
         x="-3"
         y="-34"
         width="6"
         height="52"
         rx="1.5"
         fill="currentColor"
         opacity="0.25"
         id="rect24" />
      <path
         d="M-3,17 L-5,30 Q0,34 5,30 L3,17 Z"
         fill="currentColor"
         opacity="0.32"
         id="path25" />
      <line
         x1="0"
         y1="-34"
         x2="0"
         y2="-22"
         stroke-width="2.5"
         id="line25" />
    </g>
    <g
       transform="translate(1200, 550) rotate(70)"
       opacity="0.39"
       id="g26">
      <rect
         x="-5"
         y="-44"
         width="10"
         height="64"
         rx="2"
         fill="currentColor"
         opacity="0.25"
         id="rect25" />
      <path
         d="M-5,20 L-7,37 Q0,43 7,37 L5,20 Z"
         fill="currentColor"
         opacity="0.39"
         id="path26" />
      <line
         x1="0"
         y1="-44"
         x2="0"
         y2="-30"
         stroke-width="3.5"
         id="line26" />
    </g>
    <g
       transform="translate(1750, 450) rotate(-60)"
       opacity="0.30"
       id="g27">
      <rect
         x="-3.5"
         y="-36"
         width="7"
         height="55"
         rx="2"
         fill="currentColor"
         opacity="0.25"
         id="rect26" />
      <path
         d="M-3.5,18 L-5.5,31 Q0,36 5.5,31 L3.5,18 Z"
         fill="currentColor"
         opacity="0.30"
         id="path27" />
      <line
         x1="0"
         y1="-36"
         x2="0"
         y2="-23"
         stroke-width="2.5"
         id="line27" />
    </g>
    <g
       transform="translate(250, 700) rotate(30)"
       opacity="0.35"
       id="g28">
      <rect
         x="-4.5"
         y="-41"
         width="9"
         height="61"
         rx="2"
         fill="currentColor"
         opacity="0.25"
         id="rect27" />
      <path
         d="M-4.5,20 L-6.5,36 Q0,41 6.5,36 L4.5,20 Z"
         fill="currentColor"
         opacity="0.35"
         id="path28" />
      <line
         x1="0"
         y1="-41"
         x2="0"
         y2="-28"
         stroke-width="3"
         id="line28" />
    </g>
    <g
       transform="translate(1000, 750) rotate(-50)"
       opacity="0.37"
       id="g29">
      <rect
         x="-3"
         y="-35"
         width="6"
         height="53"
         rx="1.5"
         fill="currentColor"
         opacity="0.25"
         id="rect28" />
      <path
         d="M-3,18 L-5,31 Q0,35 5,31 L3,18 Z"
         fill="currentColor"
         opacity="0.37"
         id="path29" />
      <line
         x1="0"
         y1="-35"
         x2="0"
         y2="-22"
         stroke-width="2.5"
         id="line29" />
    </g>
    <g
       transform="translate(1500, 100) rotate(45)"
       opacity="0.31"
       id="g30">
      <rect
         x="-4"
         y="-39"
         width="8"
         height="59"
         rx="2"
         fill="currentColor"
         opacity="0.25"
         id="rect29" />
      <path
         d="M-4,20 L-6,35 Q0,40 6,35 L4,20 Z"
         fill="currentColor"
         opacity="0.31"
         id="path30" />
      <line
         x1="0"
         y1="-39"
         x2="0"
         y2="-26"
         stroke-width="3"
         id="line30" />
    </g>
    <!-- CRAYONS (6) -->
    <g
       transform="translate(600, 200) rotate(-25)"
       opacity="0.34"
       id="g31">
      <rect
         x="-3"
         y="-29"
         width="6"
         height="49"
         rx="1"
         fill="currentColor"
         opacity="0.20"
         id="rect30" />
      <polygon
         points="-3,20 3,20 0,28"
         fill="currentColor"
         opacity="0.34"
         id="polygon30" />
      <line
         x1="0"
         y1="-29"
         x2="0"
         y2="-24"
         stroke-width="2"
         id="line31" />
    </g>
    <g
       transform="translate(1100, 300) rotate(45)"
       opacity="0.38"
       id="g32">
      <rect
         x="-2.5"
         y="-27"
         width="5"
         height="45"
         rx="1"
         fill="currentColor"
         opacity="0.20"
         id="rect31" />
      <polygon
         points="-2.5,18 2.5,18 0,25"
         fill="currentColor"
         opacity="0.38"
         id="polygon31" />
      <line
         x1="0"
         y1="-27"
         x2="0"
         y2="-22"
         stroke-width="2"
         id="line32" />
    </g>
    <g
       transform="translate(1650, 650) rotate(-55)"
       opacity="0.32"
       id="g33">
      <rect
         x="-3.5"
         y="-31"
         width="7"
         height="51"
         rx="1"
         fill="currentColor"
         opacity="0.20"
         id="rect32" />
      <polygon
         points="-3.5,20 3.5,20 0,29"
         fill="currentColor"
         opacity="0.32"
         id="polygon32" />
      <line
         x1="0"
         y1="-31"
         x2="0"
         y2="-26"
         stroke-width="2.5"
         id="line33" />
    </g>
    <g
       transform="translate(400, 600) rotate(80)"
       opacity="0.36"
       id="g34">
      <rect
         x="-2"
         y="-25"
         width="4"
         height="42"
         rx="1"
         fill="currentColor"
         opacity="0.20"
         id="rect33" />
      <polygon
         points="-2,17 2,17 0,23"
         fill="currentColor"
         opacity="0.36"
         id="polygon33" />
      <line
         x1="0"
         y1="-25"
         x2="0"
         y2="-21"
         stroke-width="1.5"
         id="line34" />
    </g>
    <g
       transform="translate(850, 900) rotate(-35)"
       opacity="0.33"
       id="g35">
      <rect
         x="-3"
         y="-30"
         width="6"
         height="48"
         rx="1"
         fill="currentColor"
         opacity="0.20"
         id="rect34" />
      <polygon
         points="-3,18 3,18 0,27"
         fill="currentColor"
         opacity="0.33"
         id="polygon34" />
      <line
         x1="0"
         y1="-30"
         x2="0"
         y2="-25"
         stroke-width="2"
         id="line35" />
    </g>
    <g
       transform="translate(150, 400) rotate(50)"
       opacity="0.37"
       id="g36">
      <rect
         x="-3.5"
         y="-33"
         width="7"
         height="53"
         rx="1"
         fill="currentColor"
         opacity="0.20"
         id="rect35" />
      <polygon
         points="-3.5,20 3.5,20 0,30"
         fill="currentColor"
         opacity="0.37"
         id="polygon35" />
      <line
         x1="0"
         y1="-33"
         x2="0"
         y2="-28"
         stroke-width="2.5"
         id="line36" />
    </g>
    <!-- FORMES GÉOMÉTRIQUES (8) -->
    <circle
       cx="700"
       cy="450"
       r="46"
       opacity="0.35"
       stroke-width="2.5"
       id="circle36" />
    <circle
       cx="1300"
       cy="250"
       r="36"
       opacity="0.33"
       stroke-width="2"
       id="circle37" />
    <circle
       cx="150"
       cy="600"
       r="54"
       opacity="0.37"
       stroke-width="3"
       id="circle38" />
    <circle
       cx="1550"
       cy="550"
       r="42"
       opacity="0.30"
       stroke-width="2"
       id="circle39" />
    <circle
       cx="500"
       cy="1000"
       r="48"
       opacity="0.36"
       stroke-width="2.5"
       id="circle40" />
    <polygon
       points="450,250 500,320 400,320"
       opacity="0.31"
       stroke-width="2"
       id="polygon40" />
    <polygon
       points="1350,750 1410,830 1290,830"
       opacity="0.38"
       stroke-width="2.5"
       id="polygon41" />
    <polygon
       points="1750,200 1800,270 1700,270"
       opacity="0.34"
       stroke-width="2"
       id="polygon42" />
    <rect
       x="1050"
       y="400"
       width="56"
       height="56"
       rx="3"
       opacity="0.32"
       stroke-width="2"
       transform="rotate(18, 1078, 428)"
       id="rect42" />
    <rect
       x="300"
       y="800"
       width="46"
       height="46"
       rx="3"
       opacity="0.35"
       stroke-width="2"
       transform="rotate(-22, 323, 823)"
       id="rect43" />
    <rect
       x="1450"
       cy="850"
       width="50"
       height="50"
       rx="3"
       opacity="0.37"
       stroke-width="2"
       transform="rotate(28, 1475, 875)"
       id="rect44" />
    <!-- Étoiles -->
    <g
       transform="translate(900, 600) rotate(12)"
       opacity="0.36"
       id="g44">
      <polygon
         points="0,-24 6,-8 24,-8 12,3 15,21 0,11 -15,21 -12,3 -24,-8 -6,-8"
         fill="currentColor"
         opacity="0.15"
         stroke-width="2"
         id="polygon44" />
    </g>
    <g
       transform="translate(1200, 100) rotate(-18)"
       opacity="0.31"
       id="g45">
      <polygon
         points="0,-19 5,-6 19,-6 10,2 13,16 0,8 -13,16 -10,2 -19,-6 -5,-6"
         fill="currentColor"
         opacity="0.15"
         stroke-width="1.5"
         id="polygon45" />
    </g>
    <!-- Spirales -->
    <g
       transform="translate(1400, 800)"
       opacity="0.38"
       id="g46">
      <path
         d="M0,0 Q13,-13 0,-26 Q-17,-26 -17,-13 Q-17,4 0,4 Q22,4 22,-13 Q22,-34 0,-34 Q-26,-34 -26,-13 Q-26,12 0,12 Q34,12 34,-13"
         stroke-width="2.5"
         id="path45" />
    </g>
    <g
       transform="translate(600, 100)"
       opacity="0.33"
       id="g47">
      <path
         d="M0,0 Q10,-10 0,-20 Q-13,-20 -13,-10 Q-13,3 0,3 Q17,3 17,-10 Q17,-27 0,-27 Q-20,-27 -20,-10"
         stroke-width="2"
         id="path46" />
    </g>
    <!-- GOUTTES DE PEINTURE (6) -->
    <g
       transform="translate(500, 400)"
       opacity="0.35"
       id="g49">
      <path
         d="M0,-19 Q11,0 11,11 Q11,21 0,21 Q-11,21 -11,11 Q-11,0 0,-19 Z"
         fill="currentColor"
         opacity="0.15"
         id="path47" />
      <circle
         cx="0"
         cy="24"
         r="3.5"
         fill="currentColor"
         opacity="0.35"
         id="circle47" />
      <circle
         cx="-7"
         cy="27"
         r="3"
         fill="currentColor"
         opacity="0.35"
         id="circle48" />
      <circle
         cx="7"
         cy="26"
         r="3"
         fill="currentColor"
         opacity="0.35"
         id="circle49" />
    </g>
    <g
       transform="translate(1150, 500)"
       opacity="0.31"
       id="g52">
      <path
         d="M0,-17 Q10,0 10,10 Q10,19 0,19 Q-10,19 -10,10 Q-10,0 0,-17 Z"
         fill="currentColor"
         opacity="0.15"
         id="path49" />
      <circle
         cx="0"
         cy="22"
         r="3"
         fill="currentColor"
         opacity="0.31"
         id="circle50" />
      <circle
         cx="-6"
         cy="25"
         r="2"
         fill="currentColor"
         opacity="0.31"
         id="circle51" />
      <circle
         cx="6"
         cy="24"
         r="2.5"
         fill="currentColor"
         opacity="0.31"
         id="circle52" />
    </g>
    <g
       transform="translate(1600, 900)"
       opacity="0.37"
       id="g55">
      <path
         d="M0,-21 Q12,0 12,13 Q12,23 0,23 Q-12,23 -12,13 Q-12,0 0,-21 Z"
         fill="currentColor"
         opacity="0.15"
         id="path52" />
      <circle
         cx="0"
         cy="26"
         r="4"
         fill="currentColor"
         opacity="0.37"
         id="circle53" />
      <circle
         cx="-8"
         cy="29"
         r="3"
         fill="currentColor"
         opacity="0.37"
         id="circle54" />
      <circle
         cx="8"
         cy="28"
         r="3.5"
         fill="currentColor"
         opacity="0.37"
         id="circle55" />
    </g>
    <g
       transform="translate(750, 250)"
       opacity="0.32"
       id="g58">
      <path
         d="M0,-15 Q9,0 9,8 Q9,16 0,16 Q-9,16 -9,8 Q-9,0 0,-15 Z"
         fill="currentColor"
         opacity="0.15"
         id="path55" />
      <circle
         cx="0"
         cy="19"
         r="2.5"
         fill="currentColor"
         opacity="0.32"
         id="circle56" />
      <circle
         cx="-5"
         cy="21"
         r="2"
         fill="currentColor"
         opacity="0.32"
         id="circle57" />
      <circle
         cx="5"
         cy="20"
         r="2"
         fill="currentColor"
         opacity="0.32"
         id="circle58" />
    </g>
    <g
       transform="translate(1850, 600)"
       opacity="0.38"
       id="g61">
      <path
         d="M0,-18 Q10,0 10,11 Q10,20 0,20 Q-10,20 -10,11 Q-10,0 0,-18 Z"
         fill="currentColor"
         opacity="0.15"
         id="path58" />
      <circle
         cx="0"
         cy="23"
         r="3.5"
         fill="currentColor"
         opacity="0.38"
         id="circle59" />
      <circle
         cx="-7"
         cy="26"
         r="2.5"
         fill="currentColor"
         opacity="0.38"
         id="circle60" />
      <circle
         cx="7"
         cy="25"
         r="3"
         fill="currentColor"
         opacity="0.38"
         id="circle61" />
    </g>
    <g
       transform="translate(300, 300)"
       opacity="0.34"
       id="g64">
      <path
         d="M0,-16 Q9,0 9,9 Q9,17 0,17 Q-9,17 -9,9 Q-9,0 0,-16 Z"
         fill="currentColor"
         opacity="0.15"
         id="path61" />
      <circle
         cx="0"
         cy="20"
         r="3"
         fill="currentColor"
         opacity="0.34"
         id="circle62" />
      <circle
         cx="-6"
         cy="22"
         r="2"
         fill="currentColor"
         opacity="0.34"
         id="circle63" />
      <circle
         cx="6"
         cy="21"
         r="2.5"
         fill="currentColor"
         opacity="0.34"
         id="circle64" />
    </g>
    <!-- TOILES / CADRES (5) -->
    <g
       transform="translate(1000, 450) rotate(-12)"
       opacity="0.35"
       id="g67">
      <rect
         x="-50"
         y="-39"
         width="100"
         height="78"
         rx="2"
         stroke-width="2.5"
         id="rect64" />
      <line
         x1="-50"
         y1="-20"
         x2="50"
         y2="-20"
         stroke-width="1.5"
         opacity="0.5"
         id="line64" />
      <line
         x1="-50"
         y1="0"
         x2="50"
         y2="0"
         stroke-width="1.5"
         opacity="0.5"
         id="line65" />
      <line
         x1="-50"
         y1="20"
         x2="50"
         y2="20"
         stroke-width="1.5"
         opacity="0.5"
         id="line66" />
      <circle
         cx="-30"
         cy="-10"
         r="5"
         fill="currentColor"
         opacity="0.35"
         id="circle66" />
      <circle
         cx="30"
         cy="10"
         r="5"
         fill="currentColor"
         opacity="0.35"
         id="circle67" />
    </g>
    <g
       transform="translate(1700, 350) rotate(28)"
       opacity="0.32"
       id="g70">
      <rect
         x="-46"
         y="-35"
         width="92"
         height="70"
         rx="2"
         stroke-width="2"
         id="rect67" />
      <line
         x1="-46"
         y1="-18"
         x2="46"
         y2="-18"
         stroke-width="1.5"
         opacity="0.5"
         id="line67" />
      <line
         x1="-46"
         y1="0"
         x2="46"
         y2="0"
         stroke-width="1.5"
         opacity="0.5"
         id="line68" />
      <line
         x1="-46"
         y1="18"
         x2="46"
         y2="18"
         stroke-width="1.5"
         opacity="0.5"
         id="line69" />
      <circle
         cx="-26"
         cy="-9"
         r="4"
         fill="currentColor"
         opacity="0.32"
         id="circle69" />
      <circle
         cx="26"
         cy="9"
         r="4"
         fill="currentColor"
         opacity="0.32"
         id="circle70" />
    </g>
    <g
       transform="translate(600, 750) rotate(-22)"
       opacity="0.37"
       id="g73">
      <rect
         x="-54"
         y="-41"
         width="108"
         height="82"
         rx="2"
         stroke-width="2.5"
         id="rect70" />
      <line
         x1="-54"
         y1="-21"
         x2="54"
         y2="-21"
         stroke-width="1.5"
         opacity="0.5"
         id="line70" />
      <line
         x1="-54"
         y1="0"
         x2="54"
         y2="0"
         stroke-width="1.5"
         opacity="0.5"
         id="line71" />
      <line
         x1="-54"
         y1="21"
         x2="54"
         y2="21"
         stroke-width="1.5"
         opacity="0.5"
         id="line72" />
      <circle
         cx="-32"
         cy="-10"
         r="5"
         fill="currentColor"
         opacity="0.37"
         id="circle72" />
      <circle
         cx="32"
         cy="10"
         r="5"
         fill="currentColor"
         opacity="0.37"
         id="circle73" />
    </g>
    <g
       transform="translate(200, 950) rotate(38)"
       opacity="0.30"
       id="g76">
      <rect
         x="-47"
         y="-37"
         width="94"
         height="74"
         rx="2"
         stroke-width="2"
         id="rect73" />
      <line
         x1="-47"
         y1="-19"
         x2="47"
         y2="-19"
         stroke-width="1.5"
         opacity="0.5"
         id="line73" />
      <line
         x1="-47"
         y1="0"
         x2="47"
         y2="0"
         stroke-width="1.5"
         opacity="0.5"
         id="line74" />
      <line
         x1="-47"
         y1="19"
         x2="47"
         y2="19"
         stroke-width="1.5"
         opacity="0.5"
         id="line75" />
      <circle
         cx="-27"
         cy="-9"
         r="4"
         fill="currentColor"
         opacity="0.30"
         id="circle75" />
      <circle
         cx="27"
         cy="9"
         r="4"
         fill="currentColor"
         opacity="0.30"
         id="circle76" />
    </g>
    <g
       transform="translate(1350, 50) rotate(-30)"
       opacity="0.36"
       id="g79">
      <rect
         x="-43"
         y="-33"
         width="86"
         height="66"
         rx="2"
         stroke-width="2"
         id="rect76" />
      <line
         x1="-43"
         y1="-16"
         x2="43"
         y2="-16"
         stroke-width="1.5"
         opacity="0.5"
         id="line76" />
      <line
         x1="-43"
         y1="0"
         x2="43"
         y2="0"
         stroke-width="1.5"
         opacity="0.5"
         id="line77" />
      <line
         x1="-43"
         y1="16"
         x2="43"
         y2="16"
         stroke-width="1.5"
         opacity="0.5"
         id="line78" />
      <circle
         cx="-23"
         cy="-8"
         r="4"
         fill="currentColor"
         opacity="0.36"
         id="circle78" />
      <circle
         cx="23"
         cy="8"
         r="4"
         fill="currentColor"
         opacity="0.36"
         id="circle79" />
    </g>
    <!-- CISEAUX (2) -->
    <g
       transform="translate(1250, 850) rotate(32)"
       opacity="0.33"
       id="g81">
      <line
         x1="-19"
         y1="-29"
         x2="19"
         y2="29"
         stroke-width="4"
         stroke-linecap="round"
         id="line79" />
      <line
         x1="19"
         y1="-29"
         x2="-19"
         y2="29"
         stroke-width="4"
         stroke-linecap="round"
         id="line80" />
      <circle
         cx="-19"
         cy="-29"
         r="10"
         stroke-width="3"
         fill="currentColor"
         opacity="0.10"
         id="circle80" />
      <circle
         cx="19"
         cy="-29"
         r="10"
         stroke-width="3"
         fill="currentColor"
         opacity="0.10"
         id="circle81" />
    </g>
    <g
       transform="translate(450, 150) rotate(-48)"
       opacity="0.36"
       id="g83">
      <line
         x1="-17"
         y1="-26"
         x2="17"
         y2="26"
         stroke-width="3.5"
         stroke-linecap="round"
         id="line81" />
      <line
         x1="17"
         y1="-26"
         x2="-17"
         y2="26"
         stroke-width="3.5"
         stroke-linecap="round"
         id="line82" />
      <circle
         cx="-17"
         cy="-26"
         r="9"
         stroke-width="2.5"
         fill="currentColor"
         opacity="0.10"
         id="circle82" />
      <circle
         cx="17"
         cy="-26"
         r="9"
         stroke-width="2.5"
         fill="currentColor"
         opacity="0.10"
         id="circle83" />
    </g>
    <!-- ROULEAUX (2) -->
    <g
       transform="translate(1750, 750) rotate(-22)"
       opacity="0.31"
       id="g84">
      <rect
         x="-5"
         y="-33"
         width="10"
         height="48"
         rx="2"
         fill="currentColor"
         opacity="0.20"
         id="rect83" />
      <rect
         x="-14"
         y="-43"
         width="28"
         height="11"
         rx="6"
         stroke-width="2"
         id="rect84" />
    </g>
    <g
       transform="translate(850, 550) rotate(42)"
       opacity="0.37"
       id="g86">
      <rect
         x="-4"
         y="-31"
         width="8"
         height="44"
         rx="2"
         fill="currentColor"
         opacity="0.20"
         id="rect85" />
      <rect
         x="-13"
         y="-39"
         width="26"
         height="10"
         rx="5"
         stroke-width="2"
         id="rect86" />
    </g>
  </g>
</svg>
