<?xml version="1.0" encoding="UTF-8" standalone="no"?>
<svg
   width="1920"
   height="1080"
   viewBox="0 0 1920 1080"
   version="1.1"
   id="svg84"
   sodipodi:docname="materiel-batiment-02.svg"
   inkscape:version="1.4.4 (dcaf3e7d9e, 2026-05-05)"
   xmlns:inkscape="http://www.inkscape.org/namespaces/inkscape"
   xmlns:sodipodi="http://sodipodi.sourceforge.net/DTD/sodipodi-0.dtd"
   xmlns="http://www.w3.org/2000/svg"
   xmlns:svg="http://www.w3.org/2000/svg">
  <defs
     id="defs84" />
  <sodipodi:namedview
     id="namedview84"
     pagecolor="#ffffff"
     bordercolor="#000000"
     borderopacity="0.25"
     inkscape:showpageshadow="2"
     inkscape:pageopacity="0.0"
     inkscape:pagecheckerboard="0"
     inkscape:deskcolor="#d1d1d1"
     inkscape:zoom="0.69444444"
     inkscape:cx="960.48"
     inkscape:cy="540"
     inkscape:window-width="1920"
     inkscape:window-height="958"
     inkscape:window-x="0"
     inkscape:window-y="0"
     inkscape:window-maximized="1"
     inkscape:current-layer="svg84" />
  <g
     stroke="currentColor"
     fill="none"
     id="g84"
     transform="matrix(0.99997695,0,0,1.0400144,-38.856942,15.345203)">
    <!-- TRUELLES (6) -->
    <g
       transform="rotate(15,-393.72402,824.57541)"
       opacity="0.34"
       id="g2">
      <path
         d="m -14,-28 h 28 l 5,66 Q 0,52 -19,38 Z"
         stroke-width="2.5"
         id="path1" />
      <line
         x1="0"
         y1="-24"
         x2="0"
         y2="33"
         stroke-width="1.5"
         opacity="0.4"
         id="line1" />
      <rect
         x="-4"
         y="-58"
         width="8"
         height="34"
         rx="2"
         stroke-width="2"
         id="rect2" />
    </g>
    <g
       transform="rotate(-12,803.29004,-2609.022)"
       opacity="0.36"
       id="g3">
      <path
         d="m -16,-32 h 32 l 5,74 Q 0,56 -21,42 Z"
         stroke-width="2.5"
         id="path2" />
      <line
         x1="0"
         y1="-26"
         x2="0"
         y2="37"
         stroke-width="1.5"
         opacity="0.4"
         id="line2" />
      <rect
         x="-4.5"
         y="-62"
         width="9"
         height="36"
         rx="2"
         stroke-width="2"
         id="rect3" />
    </g>
    <g
       transform="rotate(18,-35.100121,3047.4632)"
       opacity="0.33"
       id="g4">
      <path
         d="m -13,-26 h 26 l 5,61 Q 0,48 -18,35 Z"
         stroke-width="2.5"
         id="path3" />
      <line
         x1="0"
         y1="-22"
         x2="0"
         y2="30"
         stroke-width="1.5"
         opacity="0.4"
         id="line3" />
      <rect
         x="-3.5"
         y="-55"
         width="7"
         height="32"
         rx="2"
         stroke-width="2"
         id="rect4" />
    </g>
    <g
       transform="rotate(-15,1211.7028,-5095.1128)"
       opacity="0.35"
       id="g5">
      <path
         d="m -17,-34 h 34 l 5,79 Q 0,60 -22,45 Z"
         stroke-width="2.5"
         id="path4" />
      <line
         x1="0"
         y1="-28"
         x2="0"
         y2="40"
         stroke-width="1.5"
         opacity="0.4"
         id="line4" />
      <rect
         x="-4.5"
         y="-65"
         width="9"
         height="38"
         rx="2"
         stroke-width="2"
         id="rect5" />
    </g>
    <g
       transform="rotate(10,-215.85497,10039.146)"
       opacity="0.32"
       id="g6">
      <path
         d="m -15,-30 h 30 l 5,70 Q 0,55 -20,40 Z"
         stroke-width="2.5"
         id="path5" />
      <line
         x1="0"
         y1="-25"
         x2="0"
         y2="35"
         stroke-width="1.5"
         opacity="0.4"
         id="line5" />
      <rect
         x="-4"
         y="-60"
         width="8"
         height="35"
         rx="2"
         stroke-width="2"
         id="rect6" />
    </g>
    <g
       transform="rotate(-18,1432.7503,-873.33776)"
       opacity="0.37"
       id="g7">
      <path
         d="m -12,-24 h 24 l 4,56 Q 0,44 -16,32 Z"
         stroke-width="2.5"
         id="path6" />
      <line
         x1="0"
         y1="-20"
         x2="0"
         y2="28"
         stroke-width="1.5"
         opacity="0.4"
         id="line6" />
      <rect
         x="-3"
         y="-50"
         width="6"
         height="30"
         rx="2"
         stroke-width="2"
         id="rect7" />
    </g>
    <!-- MARTEAUX (6) -->
    <g
       transform="rotate(15,-171.70279,2804.4715)"
       opacity="0.35"
       id="g9">
      <rect
         x="-4"
         y="-48"
         width="8"
         height="86"
         rx="2"
         stroke-width="2"
         id="rect8" />
      <rect
         x="-19"
         y="-58"
         width="38"
         height="19"
         rx="3"
         stroke-width="2.5"
         id="rect9" />
      <path
         d="m 19,-58 q 7,0 7,10"
         stroke-width="2"
         id="path9" />
    </g>
    <g
       transform="rotate(-18,938.82509,-3475.7008)"
       opacity="0.33"
       id="g11">
      <rect
         x="-3.5"
         y="-42"
         width="7"
         height="76"
         rx="2"
         stroke-width="2"
         id="rect10" />
      <rect
         x="-17"
         y="-52"
         width="34"
         height="17"
         rx="3"
         stroke-width="2.5"
         id="rect11" />
      <path
         d="m 17,-52 q 7,0 7,9"
         stroke-width="2"
         id="path11" />
    </g>
    <g
       transform="rotate(12,-381.72373,7350.917)"
       opacity="0.36"
       id="g13">
      <rect
         x="-4.5"
         y="-52"
         width="9"
         height="94"
         rx="2"
         stroke-width="2"
         id="rect12" />
      <rect
         x="-21"
         y="-62"
         width="42"
         height="21"
         rx="3"
         stroke-width="2.5"
         id="rect13" />
      <path
         d="m 21,-62 q 8,0 8,11"
         stroke-width="2"
         id="path13" />
    </g>
    <g
       transform="rotate(-15,2130.8536,-337.66033)"
       opacity="0.34"
       id="g15">
      <rect
         x="-3"
         y="-40"
         width="6"
         height="72"
         rx="2"
         stroke-width="2"
         id="rect14" />
      <rect
         x="-16"
         y="-50"
         width="32"
         height="16"
         rx="3"
         stroke-width="2.5"
         id="rect15" />
      <path
         d="m 16,-50 q 7,0 7,8"
         stroke-width="2"
         id="path15" />
    </g>
    <g
       transform="rotate(18,-548.73161,6138.3577)"
       opacity="0.32"
       id="g17">
      <rect
         x="-4"
         y="-46"
         width="8"
         height="82"
         rx="2"
         stroke-width="2"
         id="rect16" />
      <rect
         x="-18"
         y="-56"
         width="36"
         height="18"
         rx="3"
         stroke-width="2.5"
         id="rect17" />
      <path
         d="m 18,-56 q 7,0 7,9"
         stroke-width="2"
         id="path17" />
    </g>
    <g
       transform="rotate(-12,2746.1629,-2789.5966)"
       opacity="0.37"
       id="g19">
      <rect
         x="-3.5"
         y="-44"
         width="7"
         height="78"
         rx="2"
         stroke-width="2"
         id="rect18" />
      <rect
         x="-18"
         y="-54"
         width="36"
         height="18"
         rx="3"
         stroke-width="2.5"
         id="rect19" />
      <path
         d="m 18,-54 q 7,0 7,9"
         stroke-width="2"
         id="path19" />
    </g>
    <!-- SCIES (5) -->
    <g
       transform="rotate(10,-1333.0571,2535.311)"
       opacity="0.35"
       id="g21">
      <path
         d="M -58,-7 H 58 V 7 H -58 Z"
         stroke-width="2"
         id="path20" />
      <path
         d="m -58,7 5,4 5,-4 5,4 5,-4 5,4 5,-4 5,4 5,-4 5,4 5,-4 5,4 5,-4 5,4 5,-4 5,4 5,-4 5,4 5,-4 5,4 5,-4 5,4 5,-4 5,4 1,-4"
         stroke-width="1.5"
         id="path21" />
      <rect
         x="-78"
         y="-11"
         width="24"
         height="22"
         rx="3"
         stroke-width="2"
         id="rect21" />
    </g>
    <g
       transform="rotate(-15,1826.2782,-3893.7285)"
       opacity="0.33"
       id="g23">
      <path
         d="M -62,-8 H 62 V 8 H -62 Z"
         stroke-width="2"
         id="path22" />
      <path
         d="m -62,8 5,4 5,-4 5,4 5,-4 5,4 5,-4 5,4 5,-4 5,4 5,-4 5,4 5,-4 5,4 5,-4 5,4 5,-4 5,4 5,-4 5,4 5,-4 5,4 5,-4 5,4 5,-4 3,4 1,-4"
         stroke-width="1.5"
         id="path23" />
      <rect
         x="-82"
         y="-12"
         width="26"
         height="24"
         rx="3"
         stroke-width="2"
         id="rect23" />
    </g>
    <g
       transform="rotate(18,-544.31906,4940.3136)"
       opacity="0.36"
       id="g25">
      <path
         d="M -54,-7 H 54 V 7 H -54 Z"
         stroke-width="2"
         id="path24" />
      <path
         d="m -54,7 5,4 5,-4 5,4 5,-4 5,4 5,-4 5,4 5,-4 5,4 5,-4 5,4 5,-4 5,4 5,-4 5,4 5,-4 5,4 5,-4 5,4 5,-4 5,4 3,-4"
         stroke-width="1.5"
         id="path25" />
      <rect
         x="-74"
         y="-11"
         width="22"
         height="22"
         rx="3"
         stroke-width="2"
         id="rect25" />
    </g>
    <g
       transform="rotate(-12,3487.5994,-691.58009)"
       opacity="0.34"
       id="g27">
      <path
         d="M -66,-9 H 66 V 9 H -66 Z"
         stroke-width="2"
         id="path26" />
      <path
         d="m -66,9 5,4 5,-4 5,4 5,-4 5,4 5,-4 5,4 5,-4 5,4 5,-4 5,4 5,-4 5,4 5,-4 5,4 5,-4 5,4 5,-4 5,4 5,-4 5,4 5,-4 5,4 5,-4 5,4 5,-4 h 2"
         stroke-width="1.5"
         id="path27" />
      <rect
         x="-86"
         y="-13"
         width="28"
         height="26"
         rx="3"
         stroke-width="2"
         id="rect27" />
    </g>
    <g
       transform="rotate(15,-1659.5776,7057.2424)"
       opacity="0.31"
       id="g29">
      <path
         d="M -56,-7 H 56 V 7 H -56 Z"
         stroke-width="2"
         id="path28" />
      <path
         d="m -56,7 5,4 5,-4 5,4 5,-4 5,4 5,-4 5,4 5,-4 5,4 5,-4 5,4 5,-4 5,4 5,-4 5,4 5,-4 5,4 5,-4 5,4 5,-4 5,4 5,-4 h 2"
         stroke-width="1.5"
         id="path29" />
      <rect
         x="-76"
         y="-11"
         width="24"
         height="22"
         rx="3"
         stroke-width="2"
         id="rect29" />
    </g>
    <!-- CLÉS À MOLETTE (5) -->
    <g
       transform="rotate(18,-367.65018,2582.3631)"
       opacity="0.35"
       id="g31">
      <rect
         x="-6"
         y="-52"
         width="12"
         height="104"
         rx="3"
         stroke-width="2.5"
         id="rect30" />
      <path
         d="m -19,-62 h 38 v 15 H 7 v 10 H -7 v -10 h -12 z"
         stroke-width="2"
         id="path30" />
      <circle
         cx="0"
         cy="47"
         r="8"
         stroke-width="2"
         id="circle30" />
      <circle
         cx="0"
         cy="47"
         r="3"
         fill="currentColor"
         opacity="0.35"
         id="circle31" />
    </g>
    <g
       transform="rotate(-15,1716.3843,-4526.3888)"
       opacity="0.33"
       id="g33">
      <rect
         x="-5"
         y="-47"
         width="10"
         height="94"
         rx="3"
         stroke-width="2.5"
         id="rect31" />
      <path
         d="m -17,-57 h 34 v 15 H 6 v 10 H -6 v -10 h -11 z"
         stroke-width="2"
         id="path31" />
      <circle
         cx="0"
         cy="42"
         r="7"
         stroke-width="2"
         id="circle32" />
      <circle
         cx="0"
         cy="42"
         r="2.5"
         fill="currentColor"
         opacity="0.33"
         id="circle33" />
    </g>
    <g
       transform="rotate(12,-925.15742,8129.4943)"
       opacity="0.36"
       id="g35">
      <rect
         x="-7"
         y="-57"
         width="14"
         height="114"
         rx="3"
         stroke-width="2.5"
         id="rect33" />
      <path
         d="m -21,-67 h 42 v 15 H 8 v 10 H -8 v -10 h -13 z"
         stroke-width="2"
         id="path33" />
      <circle
         cx="0"
         cy="52"
         r="9"
         stroke-width="2"
         id="circle34" />
      <circle
         cx="0"
         cy="52"
         r="3.5"
         fill="currentColor"
         opacity="0.36"
         id="circle35" />
    </g>
    <g
       transform="rotate(-18,1984.4192,-883.04403)"
       opacity="0.34"
       id="g37">
      <rect
         x="-5"
         y="-44"
         width="10"
         height="88"
         rx="3"
         stroke-width="2.5"
         id="rect35" />
      <path
         d="m -16,-54 h 32 v 14 H 6 v 10 H -6 v -10 h -10 z"
         stroke-width="2"
         id="path35" />
      <circle
         cx="0"
         cy="40"
         r="7"
         stroke-width="2"
         id="circle36" />
      <circle
         cx="0"
         cy="40"
         r="2.5"
         fill="currentColor"
         opacity="0.34"
         id="circle37" />
    </g>
    <g
       transform="rotate(15,-1090.8536,7561.9239)"
       opacity="0.32"
       id="g39">
      <rect
         x="-6"
         y="-50"
         width="12"
         height="100"
         rx="3"
         stroke-width="2.5"
         id="rect37" />
      <path
         d="m -18,-60 h 36 v 15 H 7 v 10 H -7 v -10 h -11 z"
         stroke-width="2"
         id="path37" />
      <circle
         cx="0"
         cy="45"
         r="8"
         stroke-width="2"
         id="circle38" />
      <circle
         cx="0"
         cy="45"
         r="3"
         fill="currentColor"
         opacity="0.32"
         id="circle39" />
    </g>
    <!-- CASQUES (5) -->
    <g
       transform="rotate(-12,1343.721,-5005.185)"
       opacity="0.35"
       id="g40">
      <path
         d="m -42,0 q 0,-36 42,-36 42,0 42,36 z"
         stroke-width="2.5"
         id="path39" />
      <line
         x1="-46"
         y1="0"
         x2="46"
         y2="0"
         stroke-width="2.5"
         id="line39" />
      <path
         d="M -36,-5 Q 0,-15 36,-5"
         stroke-width="1.5"
         opacity="0.5"
         id="path40" />
      <rect
         x="-9"
         y="-31"
         width="18"
         height="9"
         rx="2"
         fill="currentColor"
         opacity="0.15"
         id="rect40" />
    </g>
    <g
       transform="rotate(18,-117.35645,4775.6074)"
       opacity="0.33"
       id="g42">
      <path
         d="m -38,0 q 0,-33 38,-33 38,0 38,33 z"
         stroke-width="2.5"
         id="path41" />
      <line
         x1="-42"
         y1="0"
         x2="42"
         y2="0"
         stroke-width="2.5"
         id="line41" />
      <path
         d="m -32,-5 q 32,-9 64,0"
         stroke-width="1.5"
         opacity="0.5"
         id="path42" />
      <rect
         x="-8"
         y="-28"
         width="16"
         height="8"
         rx="2"
         fill="currentColor"
         opacity="0.15"
         id="rect42" />
    </g>
    <g
       transform="rotate(-15,1920.0022,-790.42681)"
       opacity="0.36"
       id="g44">
      <path
         d="m -46,0 q 0,-40 46,-40 46,0 46,40 z"
         stroke-width="2.5"
         id="path43" />
      <line
         x1="-50"
         y1="0"
         x2="50"
         y2="0"
         stroke-width="2.5"
         id="line43" />
      <path
         d="M -40,-6 Q 0,-17 40,-6"
         stroke-width="1.5"
         opacity="0.5"
         id="path44" />
      <rect
         x="-10"
         y="-35"
         width="20"
         height="10"
         rx="2"
         fill="currentColor"
         opacity="0.15"
         id="rect44" />
    </g>
    <g
       transform="rotate(10,-3222.6167,5292.0728)"
       opacity="0.34"
       id="g46">
      <path
         d="m -40,0 q 0,-35 40,-35 40,0 40,35 z"
         stroke-width="2.5"
         id="path45" />
      <line
         x1="-44"
         y1="0"
         x2="44"
         y2="0"
         stroke-width="2.5"
         id="line45" />
      <path
         d="M -34,-5 Q 0,-15 34,-5"
         stroke-width="1.5"
         opacity="0.5"
         id="path46" />
      <rect
         x="-9"
         y="-30"
         width="18"
         height="9"
         rx="2"
         fill="currentColor"
         opacity="0.15"
         id="rect46" />
    </g>
    <g
       transform="rotate(-18,3246.0881,-5375.5139)"
       opacity="0.32"
       id="g48">
      <path
         d="m -44,0 q 0,-38 44,-38 44,0 44,38 z"
         stroke-width="2.5"
         id="path47" />
      <line
         x1="-48"
         y1="0"
         x2="48"
         y2="0"
         stroke-width="2.5"
         id="line47" />
      <path
         d="M -38,-6 Q 0,-16 38,-6"
         stroke-width="1.5"
         opacity="0.5"
         id="path48" />
      <rect
         x="-10"
         y="-33"
         width="20"
         height="10"
         rx="2"
         fill="currentColor"
         opacity="0.15"
         id="rect48" />
    </g>
    <!-- PERCEUSES (4) -->
    <g
       transform="rotate(18,-813.33776,1811.5754)"
       opacity="0.35"
       id="g50">
      <rect
         x="-21"
         y="-32"
         width="42"
         height="52"
         rx="4"
         stroke-width="2.5"
         id="rect49" />
      <rect
         x="-9"
         y="20"
         width="18"
         height="36"
         rx="2"
         stroke-width="2"
         id="rect50" />
      <line
         x1="0"
         y1="56"
         x2="0"
         y2="78"
         stroke-width="3"
         id="line50" />
      <circle
         cx="-11"
         cy="-16"
         r="4.5"
         fill="currentColor"
         opacity="0.35"
         id="circle50" />
      <path
         d="m -21,-11 h -11 v 22 h 11"
         stroke-width="2"
         id="path50" />
    </g>
    <g
       transform="rotate(-12,2535.4447,-5360.9032)"
       opacity="0.33"
       id="g52">
      <rect
         x="-19"
         y="-29"
         width="38"
         height="48"
         rx="4"
         stroke-width="2.5"
         id="rect51" />
      <rect
         x="-8"
         y="19"
         width="16"
         height="34"
         rx="2"
         stroke-width="2"
         id="rect52" />
      <line
         x1="0"
         y1="53"
         x2="0"
         y2="72"
         stroke-width="3"
         id="line52" />
      <circle
         cx="-10"
         cy="-14"
         r="4"
         fill="currentColor"
         opacity="0.33"
         id="circle52" />
      <path
         d="M -19,-9 H -29 V 9 h 10"
         stroke-width="2"
         id="path52" />
    </g>
    <g
       transform="rotate(15,-1076.9173,6787.3485)"
       opacity="0.36"
       id="g54">
      <rect
         x="-23"
         y="-34"
         width="46"
         height="58"
         rx="4"
         stroke-width="2.5"
         id="rect53" />
      <rect
         x="-10"
         y="24"
         width="20"
         height="40"
         rx="2"
         stroke-width="2"
         id="rect54" />
      <line
         x1="0"
         y1="64"
         x2="0"
         y2="86"
         stroke-width="3"
         id="line54" />
      <circle
         cx="-12"
         cy="-18"
         r="5"
         fill="currentColor"
         opacity="0.36"
         id="circle54" />
      <path
         d="m -23,-13 h -12 v 26 h 12"
         stroke-width="2"
         id="path54" />
    </g>
    <g
       transform="rotate(-18,2691.7756,167.44994)"
       opacity="0.34"
       id="g56">
      <rect
         x="-20"
         y="-30"
         width="40"
         height="50"
         rx="4"
         stroke-width="2.5"
         id="rect55" />
      <rect
         x="-9"
         y="20"
         width="18"
         height="36"
         rx="2"
         stroke-width="2"
         id="rect56" />
      <line
         x1="0"
         y1="56"
         x2="0"
         y2="76"
         stroke-width="3"
         id="line56" />
      <circle
         cx="-11"
         cy="-15"
         r="4.5"
         fill="currentColor"
         opacity="0.34"
         id="circle56" />
      <path
         d="m -20,-10 h -11 v 20 h 11"
         stroke-width="2"
         id="path56" />
    </g>
    <!-- ÉTAUX (4) -->
    <g
       transform="rotate(15,-36.596641,5298.0916)"
       opacity="0.35"
       id="g60">
      <rect
         x="-36"
         y="-21"
         width="72"
         height="42"
         rx="3"
         stroke-width="2.5"
         id="rect57" />
      <rect
         x="-46"
         y="-16"
         width="16"
         height="32"
         rx="2"
         stroke-width="2"
         id="rect58" />
      <rect
         x="30"
         y="-16"
         width="16"
         height="32"
         rx="2"
         stroke-width="2"
         id="rect59" />
      <line
         x1="-36"
         y1="0"
         x2="36"
         y2="0"
         stroke-width="1.5"
         opacity="0.4"
         id="line59" />
      <circle
         cx="0"
         cy="32"
         r="11"
         stroke-width="2"
         id="circle59" />
      <circle
         cx="0"
         cy="32"
         r="4"
         fill="currentColor"
         opacity="0.35"
         id="circle60" />
    </g>
    <g
       transform="rotate(-12,2284.7265,-7551.6352)"
       opacity="0.33"
       id="g63">
      <rect
         x="-33"
         y="-19"
         width="66"
         height="38"
         rx="3"
         stroke-width="2.5"
         id="rect60" />
      <rect
         x="-43"
         y="-14"
         width="15"
         height="28"
         rx="2"
         stroke-width="2"
         id="rect61" />
      <rect
         x="28"
         y="-14"
         width="15"
         height="28"
         rx="2"
         stroke-width="2"
         id="rect62" />
      <line
         x1="-33"
         y1="0"
         x2="33"
         y2="0"
         stroke-width="1.5"
         opacity="0.4"
         id="line62" />
      <circle
         cx="0"
         cy="28"
         r="10"
         stroke-width="2"
         id="circle62" />
      <circle
         cx="0"
         cy="28"
         r="3.5"
         fill="currentColor"
         opacity="0.33"
         id="circle63" />
    </g>
    <g
       transform="rotate(18,-1785.4005,1803.7316)"
       opacity="0.36"
       id="g66">
      <rect
         x="-39"
         y="-23"
         width="78"
         height="46"
         rx="3"
         stroke-width="2.5"
         id="rect63" />
      <rect
         x="-49"
         y="-18"
         width="17"
         height="36"
         rx="2"
         stroke-width="2"
         id="rect64" />
      <rect
         x="32"
         y="-18"
         width="17"
         height="36"
         rx="2"
         stroke-width="2"
         id="rect65" />
      <line
         x1="-39"
         y1="0"
         x2="39"
         y2="0"
         stroke-width="1.5"
         opacity="0.4"
         id="line65" />
      <circle
         cx="0"
         cy="34"
         r="12"
         stroke-width="2"
         id="circle65" />
      <circle
         cx="0"
         cy="34"
         r="4.5"
         fill="currentColor"
         opacity="0.36"
         id="circle66" />
    </g>
    <g
       transform="rotate(-15,3295.429,-3313.9407)"
       opacity="0.34"
       id="g69">
      <rect
         x="-35"
         y="-20"
         width="70"
         height="40"
         rx="3"
         stroke-width="2.5"
         id="rect66" />
      <rect
         x="-45"
         y="-15"
         width="16"
         height="30"
         rx="2"
         stroke-width="2"
         id="rect67" />
      <rect
         x="29"
         y="-15"
         width="16"
         height="30"
         rx="2"
         stroke-width="2"
         id="rect68" />
      <line
         x1="-35"
         y1="0"
         x2="35"
         y2="0"
         stroke-width="1.5"
         opacity="0.4"
         id="line68" />
      <circle
         cx="0"
         cy="30"
         r="11"
         stroke-width="2"
         id="circle68" />
      <circle
         cx="0"
         cy="30"
         r="4"
         fill="currentColor"
         opacity="0.34"
         id="circle69" />
    </g>
    <!-- PINCEAUX MAÇON (5) -->
    <g
       transform="rotate(12,-1821.0193,5097.3259)"
       opacity="0.35"
       id="g71">
      <rect
         x="-5"
         y="-42"
         width="10"
         height="64"
         rx="2"
         stroke-width="2"
         id="rect69" />
      <path
         d="m -13,22 h 26 l 3,26 Q 0,58 -16,48 Z"
         stroke-width="2"
         id="path69" />
      <line
         x1="-9"
         y1="27"
         x2="9"
         y2="27"
         stroke-width="1"
         opacity="0.4"
         id="line69" />
      <line
         x1="-10"
         y1="32"
         x2="10"
         y2="32"
         stroke-width="1"
         opacity="0.4"
         id="line70" />
      <line
         x1="-11"
         y1="37"
         x2="11"
         y2="37"
         stroke-width="1"
         opacity="0.4"
         id="line71" />
    </g>
    <g
       transform="rotate(-18,2572.5567,-4187.7636)"
       opacity="0.33"
       id="g74">
      <rect
         x="-4.5"
         y="-38"
         width="9"
         height="58"
         rx="2"
         stroke-width="2"
         id="rect71" />
      <path
         d="m -12,20 h 24 l 3,24 Q 0,54 -15,44 Z"
         stroke-width="2"
         id="path71" />
      <line
         x1="-8"
         y1="24"
         x2="8"
         y2="24"
         stroke-width="1"
         opacity="0.4"
         id="line72" />
      <line
         x1="-9"
         y1="29"
         x2="9"
         y2="29"
         stroke-width="1"
         opacity="0.4"
         id="line73" />
      <line
         x1="-10"
         y1="34"
         x2="10"
         y2="34"
         stroke-width="1"
         opacity="0.4"
         id="line74" />
    </g>
    <g
       transform="rotate(15,-2714.3653,1980.1084)"
       opacity="0.36"
       id="g77">
      <rect
         x="-5.5"
         y="-46"
         width="11"
         height="70"
         rx="2"
         stroke-width="2"
         id="rect74" />
      <path
         d="m -14,24 h 28 l 3,28 Q 0,62 -17,52 Z"
         stroke-width="2"
         id="path74" />
      <line
         x1="-10"
         y1="29"
         x2="10"
         y2="29"
         stroke-width="1"
         opacity="0.4"
         id="line75" />
      <line
         x1="-11"
         y1="34"
         x2="11"
         y2="34"
         stroke-width="1"
         opacity="0.4"
         id="line76" />
      <line
         x1="-12"
         y1="39"
         x2="12"
         y2="39"
         stroke-width="1"
         opacity="0.4"
         id="line77" />
    </g>
    <g
       transform="rotate(-12,4262.5994,-8065.2125)"
       opacity="0.34"
       id="g80">
      <rect
         x="-4.5"
         y="-40"
         width="9"
         height="62"
         rx="2"
         stroke-width="2"
         id="rect77" />
      <path
         d="m -12,22 h 24 l 3,24 Q 0,56 -15,46 Z"
         stroke-width="2"
         id="path77" />
      <line
         x1="-8"
         y1="26"
         x2="8"
         y2="26"
         stroke-width="1"
         opacity="0.4"
         id="line78" />
      <line
         x1="-9"
         y1="31"
         x2="9"
         y2="31"
         stroke-width="1"
         opacity="0.4"
         id="line79" />
      <line
         x1="-10"
         y1="36"
         x2="10"
         y2="36"
         stroke-width="1"
         opacity="0.4"
         id="line80" />
    </g>
    <g
       transform="rotate(18,-2865.8945,906.96261)"
       opacity="0.32"
       id="g83">
      <rect
         x="-5"
         y="-44"
         width="10"
         height="66"
         rx="2"
         stroke-width="2"
         id="rect80" />
      <path
         d="m -13,22 h 26 l 3,28 Q 0,60 -16,50 Z"
         stroke-width="2"
         id="path80" />
      <line
         x1="-9"
         y1="27"
         x2="9"
         y2="27"
         stroke-width="1"
         opacity="0.4"
         id="line81" />
      <line
         x1="-10"
         y1="32"
         x2="10"
         y2="32"
         stroke-width="1"
         opacity="0.4"
         id="line82" />
      <line
         x1="-11"
         y1="37"
         x2="11"
         y2="37"
         stroke-width="1"
         opacity="0.4"
         id="line83" />
    </g>
  </g>
</svg>
