<svg xmlns="http://www.w3.org/2000/svg" width="1920" height="1080" viewBox="0 0 1920 1080">
  <rect width="100%" height="100%" fill="transparent"/>
  <g stroke="currentColor" fill="none">

    <!-- BÉCHERS (6) -->
    <g transform="translate(120, 150) rotate(-8)" opacity="0.35">
      <path d="M-25,-40 L-25,30 Q-25,40 0,40 Q25,40 25,30 L25,-40" stroke-width="2.5"/>
      <line x1="-25" y1="-35" x2="25" y2="-35" stroke-width="2"/>
      <line x1="-20" y1="-20" x2="20" y2="-20" stroke-width="1" opacity="0.4"/>
      <line x1="-20" y1="-5" x2="20" y2="-5" stroke-width="1" opacity="0.4"/>
      <line x1="-20" y1="10" x2="20" y2="10" stroke-width="1" opacity="0.4"/>
    </g>

    <g transform="translate(580, 220) rotate(-15)" opacity="0.32">
      <path d="M-25,-40 L-25,30 Q-25,40 0,40 Q25,40 25,30 L25,-40" stroke-width="2.5"/>
      <line x1="-25" y1="-35" x2="25" y2="-35" stroke-width="2"/>
      <line x1="-20" y1="-20" x2="20" y2="-20" stroke-width="1" opacity="0.4"/>
      <line x1="-20" y1="-5" x2="20" y2="-5" stroke-width="1" opacity="0.4"/>
      <line x1="-20" y1="10" x2="20" y2="10" stroke-width="1" opacity="0.4"/>
    </g>

    <g transform="translate(1050, 180) rotate(-22)" opacity="0.38">
      <path d="M-25,-40 L-25,30 Q-25,40 0,40 Q25,40 25,30 L25,-40" stroke-width="2.5"/>
      <line x1="-25" y1="-35" x2="25" y2="-35" stroke-width="2"/>
      <line x1="-20" y1="-20" x2="20" y2="-20" stroke-width="1" opacity="0.4"/>
      <line x1="-20" y1="-5" x2="20" y2="-5" stroke-width="1" opacity="0.4"/>
      <line x1="-20" y1="10" x2="20" y2="10" stroke-width="1" opacity="0.4"/>
    </g>

    <g transform="translate(1520, 240) rotate(-5)" opacity="0.33">
      <path d="M-25,-40 L-25,30 Q-25,40 0,40 Q25,40 25,30 L25,-40" stroke-width="2.5"/>
      <line x1="-25" y1="-35" x2="25" y2="-35" stroke-width="2"/>
      <line x1="-20" y1="-20" x2="20" y2="-20" stroke-width="1" opacity="0.4"/>
      <line x1="-20" y1="-5" x2="20" y2="-5" stroke-width="1" opacity="0.4"/>
      <line x1="-20" y1="10" x2="20" y2="10" stroke-width="1" opacity="0.4"/>
    </g>

    <g transform="translate(350, 520) rotate(-28)" opacity="0.36">
      <path d="M-25,-40 L-25,30 Q-25,40 0,40 Q25,40 25,30 L25,-40" stroke-width="2.5"/>
      <line x1="-25" y1="-35" x2="25" y2="-35" stroke-width="2"/>
      <line x1="-20" y1="-20" x2="20" y2="-20" stroke-width="1" opacity="0.4"/>
      <line x1="-20" y1="-5" x2="20" y2="-5" stroke-width="1" opacity="0.4"/>
      <line x1="-20" y1="10" x2="20" y2="10" stroke-width="1" opacity="0.4"/>
    </g>

    <g transform="translate(980, 580) rotate(-12)" opacity="0.34">
      <path d="M-25,-40 L-25,30 Q-25,40 0,40 Q25,40 25,30 L25,-40" stroke-width="2.5"/>
      <line x1="-25" y1="-35" x2="25" y2="-35" stroke-width="2"/>
      <line x1="-20" y1="-20" x2="20" y2="-20" stroke-width="1" opacity="0.4"/>
      <line x1="-20" y1="-5" x2="20" y2="-5" stroke-width="1" opacity="0.4"/>
      <line x1="-20" y1="10" x2="20" y2="10" stroke-width="1" opacity="0.4"/>
    </g>

    <!-- TUBES À ESSAI (6) -->
    <g transform="translate(640, 140) rotate(-18)" opacity="0.35">
      <path d="M-8,-45 L-8,35 Q-8,45 0,45 Q8,45 8,35 L8,-45" stroke-width="2.5"/>
      <line x1="-8" y1="-40" x2="8" y2="-40" stroke-width="2"/>
    </g>

    <g transform="translate(1150, 195) rotate(-25)" opacity="0.32">
      <path d="M-8,-45 L-8,35 Q-8,45 0,45 Q8,45 8,35 L8,-45" stroke-width="2.5"/>
      <line x1="-8" y1="-40" x2="8" y2="-40" stroke-width="2"/>
    </g>

    <g transform="translate(1600, 280) rotate(-10)" opacity="0.38">
      <path d="M-8,-45 L-8,35 Q-8,45 0,45 Q8,45 8,35 L8,-45" stroke-width="2.5"/>
      <line x1="-8" y1="-40" x2="8" y2="-40" stroke-width="2"/>
    </g>

    <g transform="translate(280, 620) rotate(-30)" opacity="0.33">
      <path d="M-8,-45 L-8,35 Q-8,45 0,45 Q8,45 8,35 L8,-45" stroke-width="2.5"/>
      <line x1="-8" y1="-40" x2="8" y2="-40" stroke-width="2"/>
    </g>

    <g transform="translate(750, 680) rotate(-15)" opacity="0.36">
      <path d="M-8,-45 L-8,35 Q-8,45 0,45 Q8,45 8,35 L8,-45" stroke-width="2.5"/>
      <line x1="-8" y1="-40" x2="8" y2="-40" stroke-width="2"/>
    </g>

    <g transform="translate(1320, 720) rotate(-20)" opacity="0.34">
      <path d="M-8,-45 L-8,35 Q-8,45 0,45 Q8,45 8,35 L8,-45" stroke-width="2.5"/>
      <line x1="-8" y1="-40" x2="8" y2="-40" stroke-width="2"/>
    </g>

    <!-- MICROSCOPES (5) -->
    <g transform="translate(400, 140) rotate(-15)" opacity="0.35">
      <rect x="-30" y="20" width="60" height="15" rx="3" stroke-width="2.5"/>
      <rect x="-8" y="-30" width="16" height="55" rx="2" stroke-width="2.5"/>
      <rect x="-20" y="-45" width="40" height="18" rx="3" stroke-width="2"/>
      <circle cx="0" cy="-36" r="6" stroke-width="1.5"/>
    </g>

    <g transform="translate(870, 260) rotate(-20)" opacity="0.32">
      <rect x="-30" y="20" width="60" height="15" rx="3" stroke-width="2.5"/>
      <rect x="-8" y="-30" width="16" height="55" rx="2" stroke-width="2.5"/>
      <rect x="-20" y="-45" width="40" height="18" rx="3" stroke-width="2"/>
      <circle cx="0" cy="-36" r="6" stroke-width="1.5"/>
    </g>

    <g transform="translate(1400, 350) rotate(-12)" opacity="0.38">
      <rect x="-30" y="20" width="60" height="15" rx="3" stroke-width="2.5"/>
      <rect x="-8" y="-30" width="16" height="55" rx="2" stroke-width="2.5"/>
      <rect x="-20" y="-45" width="40" height="18" rx="3" stroke-width="2"/>
      <circle cx="0" cy="-36" r="6" stroke-width="1.5"/>
    </g>

    <g transform="translate(500, 750) rotate(-25)" opacity="0.33">
      <rect x="-30" y="20" width="60" height="15" rx="3" stroke-width="2.5"/>
      <rect x="-8" y="-30" width="16" height="55" rx="2" stroke-width="2.5"/>
      <rect x="-20" y="-45" width="40" height="18" rx="3" stroke-width="2"/>
      <circle cx="0" cy="-36" r="6" stroke-width="1.5"/>
    </g>

    <g transform="translate(1100, 850) rotate(-8)" opacity="0.36">
      <rect x="-30" y="20" width="60" height="15" rx="3" stroke-width="2.5"/>
      <rect x="-8" y="-30" width="16" height="55" rx="2" stroke-width="2.5"/>
      <rect x="-20" y="-45" width="40" height="18" rx="3" stroke-width="2"/>
      <circle cx="0" cy="-36" r="6" stroke-width="1.5"/>
    </g>

    <!-- BALLONS (5) -->
    <g transform="translate(580, 360) rotate(-22)" opacity="0.35">
      <path d="M0,-45 L-25,-10 Q-30,10 -20,25 Q-10,40 0,40 Q10,40 20,25 Q30,10 25,-10 Z" stroke-width="2.5"/>
      <ellipse cx="0" cy="-45" rx="8" ry="4" stroke-width="2"/>
    </g>

    <g transform="translate(1020, 420) rotate(-15)" opacity="0.32">
      <path d="M0,-45 L-25,-10 Q-30,10 -20,25 Q-10,40 0,40 Q10,40 20,25 Q30,10 25,-10 Z" stroke-width="2.5"/>
      <ellipse cx="0" cy="-45" rx="8" ry="4" stroke-width="2"/>
    </g>

    <g transform="translate(1480, 500) rotate(-10)" opacity="0.38">
      <path d="M0,-45 L-25,-10 Q-30,10 -20,25 Q-10,40 0,40 Q10,40 20,25 Q30,10 25,-10 Z" stroke-width="2.5"/>
      <ellipse cx="0" cy="-45" rx="8" ry="4" stroke-width="2"/>
    </g>

    <g transform="translate(350, 880) rotate(-28)" opacity="0.33">
      <path d="M0,-45 L-25,-10 Q-30,10 -20,25 Q-10,40 0,40 Q10,40 20,25 Q30,10 25,-10 Z" stroke-width="2.5"/>
      <ellipse cx="0" cy="-45" rx="8" ry="4" stroke-width="2"/>
    </g>

    <g transform="translate(850, 920) rotate(-18)" opacity="0.36">
      <path d="M0,-45 L-25,-10 Q-30,10 -20,25 Q-10,40 0,40 Q10,40 20,25 Q30,10 25,-10 Z" stroke-width="2.5"/>
      <ellipse cx="0" cy="-45" rx="8" ry="4" stroke-width="2"/>
    </g>

    <!-- PIPETTES (5) -->
    <g transform="translate(750, 180) rotate(-12)" opacity="0.35">
      <line x1="0" y1="-45" x2="0" y2="35" stroke-width="2.5"/>
      <path d="M-6,-45 L6,-45 L4,-35 L-4,-35 Z" stroke-width="2" fill="currentColor" opacity="0.1"/>
      <line x1="-4" y1="-20" x2="4" y2="-20" stroke-width="1.5" opacity="0.5"/>
      <line x1="-4" y1="-5" x2="4" y2="-5" stroke-width="1.5" opacity="0.5"/>
      <line x1="-4" y1="10" x2="4" y2="10" stroke-width="1.5" opacity="0.5"/>
    </g>

    <g transform="translate(1250, 280) rotate(-20)" opacity="0.32">
      <line x1="0" y1="-45" x2="0" y2="35" stroke-width="2.5"/>
      <path d="M-6,-45 L6,-45 L4,-35 L-4,-35 Z" stroke-width="2" fill="currentColor" opacity="0.1"/>
      <line x1="-4" y1="-20" x2="4" y2="-20" stroke-width="1.5" opacity="0.5"/>
      <line x1="-4" y1="-5" x2="4" y2="-5" stroke-width="1.5" opacity="0.5"/>
      <line x1="-4" y1="10" x2="4" y2="10" stroke-width="1.5" opacity="0.5"/>
    </g>

    <g transform="translate(1680, 400) rotate(-8)" opacity="0.38">
      <line x1="0" y1="-45" x2="0" y2="35" stroke-width="2.5"/>
      <path d="M-6,-45 L6,-45 L4,-35 L-4,-35 Z" stroke-width="2" fill="currentColor" opacity="0.1"/>
      <line x1="-4" y1="-20" x2="4" y2="-20" stroke-width="1.5" opacity="0.5"/>
      <line x1="-4" y1="-5" x2="4" y2="-5" stroke-width="1.5" opacity="0.5"/>
      <line x1="-4" y1="10" x2="4" y2="10" stroke-width="1.5" opacity="0.5"/>
    </g>

    <g transform="translate(450, 820) rotate(-25)" opacity="0.33">
      <line x1="0" y1="-45" x2="0" y2="35" stroke-width="2.5"/>
      <path d="M-6,-45 L6,-45 L4,-35 L-4,-35 Z" stroke-width="2" fill="currentColor" opacity="0.1"/>
      <line x1="-4" y1="-20" x2="4" y2="-20" stroke-width="1.5" opacity="0.5"/>
      <line x1="-4" y1="-5" x2="4" y2="-5" stroke-width="1.5" opacity="0.5"/>
      <line x1="-4" y1="10" x2="4" y2="10" stroke-width="1.5" opacity="0.5"/>
    </g>

    <g transform="translate(950, 960) rotate(-15)" opacity="0.36">
      <line x1="0" y1="-45" x2="0" y2="35" stroke-width="2.5"/>
      <path d="M-6,-45 L6,-45 L4,-35 L-4,-35 Z" stroke-width="2" fill="currentColor" opacity="0.1"/>
      <line x1="-4" y1="-20" x2="4" y2="-20" stroke-width="1.5" opacity="0.5"/>
      <line x1="-4" y1="-5" x2="4" y2="-5" stroke-width="1.5" opacity="0.5"/>
      <line x1="-4" y1="10" x2="4" y2="10" stroke-width="1.5" opacity="0.5"/>
    </g>

    <!-- FIOLES JAUGÉES (4) -->
    <g transform="translate(920, 320) rotate(-15)" opacity="0.35">
      <path d="M-15,-45 L-15,-15 Q-15,0 -25,20 Q-30,35 -20,45 L20,45 Q30,35 25,20 Q15,0 15,-15 L15,-45" stroke-width="2.5"/>
      <line x1="-15" y1="-40" x2="15" y2="-40" stroke-width="2"/>
      <ellipse cx="0" cy="-45" rx="8" ry="4" stroke-width="2"/>
    </g>

    <g transform="translate(1380, 450) rotate(-10)" opacity="0.32">
      <path d="M-15,-45 L-15,-15 Q-15,0 -25,20 Q-30,35 -20,45 L20,45 Q30,35 25,20 Q15,0 15,-15 L15,-45" stroke-width="2.5"/>
      <line x1="-15" y1="-40" x2="15" y2="-40" stroke-width="2"/>
      <ellipse cx="0" cy="-45" rx="8" ry="4" stroke-width="2"/>
    </g>

    <g transform="translate(600, 900) rotate(-22)" opacity="0.38">
      <path d="M-15,-45 L-15,-15 Q-15,0 -25,20 Q-30,35 -20,45 L20,45 Q30,35 25,20 Q15,0 15,-15 L15,-45" stroke-width="2.5"/>
      <line x1="-15" y1="-40" x2="15" y2="-40" stroke-width="2"/>
      <ellipse cx="0" cy="-45" rx="8" ry="4" stroke-width="2"/>
    </g>

    <g transform="translate(1550, 850) rotate(-18)" opacity="0.33">
      <path d="M-15,-45 L-15,-15 Q-15,0 -25,20 Q-30,35 -20,45 L20,45 Q30,35 25,20 Q15,0 15,-15 L15,-45" stroke-width="2.5"/>
      <line x1="-15" y1="-40" x2="15" y2="-40" stroke-width="2"/>
      <ellipse cx="0" cy="-45" rx="8" ry="4" stroke-width="2"/>
    </g>

    <!-- LAMPES À ALCOOL (4) -->
    <g transform="translate(1100, 520) rotate(-10)" opacity="0.35">
      <path d="M-20,10 Q-25,25 -15,35 L15,35 Q25,25 20,10 Z" stroke-width="2.5"/>
      <rect x="-8" y="-25" width="16" height="35" rx="2" stroke-width="2.5"/>
      <path d="M0,-35 Q-8,-45 0,-55 Q8,-45 0,-35" stroke-width="2" fill="currentColor" opacity="0.15"/>
    </g>

    <g transform="translate(1500, 650) rotate(-15)" opacity="0.32">
      <path d="M-20,10 Q-25,25 -15,35 L15,35 Q25,25 20,10 Z" stroke-width="2.5"/>
      <rect x="-8" y="-25" width="16" height="35" rx="2" stroke-width="2.5"/>
      <path d="M0,-35 Q-8,-45 0,-55 Q8,-45 0,-35" stroke-width="2" fill="currentColor" opacity="0.15"/>
    </g>

    <g transform="translate(250, 950) rotate(-20)" opacity="0.38">
      <path d="M-20,10 Q-25,25 -15,35 L15,35 Q25,25 20,10 Z" stroke-width="2.5"/>
      <rect x="-8" y="-25" width="16" height="35" rx="2" stroke-width="2.5"/>
      <path d="M0,-35 Q-8,-45 0,-55 Q8,-45 0,-35" stroke-width="2" fill="currentColor" opacity="0.15"/>
    </g>

    <g transform="translate(1750, 750) rotate(-8)" opacity="0.36">
      <path d="M-20,10 Q-25,25 -15,35 L15,35 Q25,25 20,10 Z" stroke-width="2.5"/>
      <rect x="-8" y="-25" width="16" height="35" rx="2" stroke-width="2.5"/>
      <path d="M0,-35 Q-8,-45 0,-55 Q8,-45 0,-35" stroke-width="2" fill="currentColor" opacity="0.15"/>
    </g>

  </g>
</svg><svg xmlns="http://www.w3.org/2000/svg" width="1920" height="1080" viewBox="0 0 1920 1080">
  <rect width="100%" height="100%" fill="transparent"/>
  <g opacity="0.08" stroke="currentColor" stroke-width="2" fill="none">
    
    <!-- Microscopes stylisés -->
    <ellipse cx="400" cy="300" rx="40" ry="20" fill="currentColor" opacity="0.06"/>
    <rect x="390" y="200" width="20" height="100" fill="currentColor" opacity="0.08"/>
    <circle cx="400" cy="180" r="30" stroke-width="3"/>
    <ellipse cx="1200" cy="600" rx="40" ry="20" fill="currentColor" opacity="0.06"/>
    <rect x="1190" y="500" width="20" height="100" fill="currentColor" opacity="0.08"/>
    <circle cx="1200" cy="480" r="30" stroke-width="3"/>

  </g>
</svg>
